<?xml version="1.0" encoding="UTF-8"?>
<svg width="532.7" height="249" version="1.1" xmlns="http://www.w3.org/2000/svg" xmlns:dc="http://purl.org/dc/elements/1.1/" xmlns:osb="http://www.openswatchbook.org/uri/2009/osb" xmlns:rdf="http://www.w3.org/1999/02/22-rdf-syntax-ns#">
<title>No Game No Life anime logo</title>
 <metadata>
  <rdf:RDF>
    <dc:format>image/svg+xml</dc:format>
    <dc:type rdf:resource="http://purl.org/dc/dcmitype/StillImage"/>
    <dc:title/>
  </rdf:RDF>
 </metadata>
 <path d="m1.662 81.58h39.46l0.7891-26.83 38.67 0.7891v-54.45h27.62v80.49h-40.25v26.04h-66.29z" style="fill:#fffdff;stroke-linecap:square;stroke-width:2.183;stroke:#ff4c81"/>
 <path d="m123.2 67.38 65.5 0.7891v-27.62h-66.29z" style="fill:#fffdff;stroke-linecap:square;stroke-width:2.183;stroke:#ff4c81"/>
 <path d="m315.6 13.29-78.74-0.2861v-11.73h-27.76l0.5723 49.79h26.04v-11.16l20.32-0.2862v40.63h-46.64v27.47h72.97l-0.2862-67.82h33.53z" style="fill:#fffdff;stroke-linecap:square;stroke-width:2.183;stroke:#ff4c81"/>
 <path d="m315.6 43.61 3e-5 26.78h-13.39l-3e-5 -26.78z" style="fill:#fffdff;stroke-linecap:square;stroke-width:2.183;stroke:#ff4c81"/>
 <path d="m299.1 43.61v26.78h-13.67v-26.78z" style="fill:#fffdff;stroke-linecap:square;stroke-width:2.183;stroke:#ff4c81"/>
 <path d="m338.2 40.76 64.38 0.2862 0.5723 27.18-65.53-0.2862z" style="fill:#fffdff;stroke-linecap:square;stroke-width:2.183;stroke:#ff4c81"/>
 <path d="m425.2 1.273h26.04l0.2861 78.69 52.08 0.5723 0.2862-26.33 27.76-0.5723-0.5723 54.08-107.3-0.2862z" style="fill:#fffdff;stroke-linecap:square;stroke-width:2.183;stroke:#ff4c81"/>
 <path d="m107.3 142.6 0.2861 78.69h-39.49l0.2862 26.04h-66.96l-0.2861-26.04 39.77-0.2861v-25.47l38.92-0.5723 0.2862-52.08z" style="fill:#fffdff;stroke-linecap:square;stroke-width:2.183;stroke:#ff4c81"/>
 <path d="m122.7 182.1h65.81l0.5723 26.61-66.67-0.8584z" style="fill:#fffdff;stroke-linecap:square;stroke-width:2.183;stroke:#ff4c81"/>
 <path d="m200.5 142.6h106.4l0.2862 26.04-106.4 0.2862z" style="fill:#fffdff;stroke-linecap:square;stroke-width:2.183;stroke:#ff4c81"/>
 <path d="m200.8 177.3 106.2 0.2862v70.11l-26.61-0.2862 0.5723-43.78h-79.84z" style="fill:#fffdff;stroke-linecap:square;stroke-width:2.183;stroke:#ff4c81"/>
 <path d="m312.7 180.4-0.2862 26.04 39.49 0.2861v40.63l26.61 0.2862v-62.67l40.35 0.2862-0.5723-25.75-64.96-0.8584 0.5723 21.75z" style="fill:#fffdff;stroke-linecap:square;stroke-width:2.183;stroke:#ff4c81"/>
 <path d="m530.8 142.1 0.8584 105.3-28.04 0.5723 0.2862-79.26h-78.98v-26.33z" style="fill:#fffdff;stroke-linecap:square;stroke-width:2.183;stroke:#ff4c81"/>
 <ellipse cx="160.9" cy="124.9" rx="27.88" ry="27.16" style="fill:#fff;stroke-linecap:round;stroke-linejoin:round;stroke-width:2.376;stroke:#ff4c81"/>
 <path d="m153.6 107.7c-4.059 1.593-7.513 4.681-9.549 8.537s-2.639 8.449-1.666 12.7 3.513 8.125 7.024 10.71c3.511 2.587 7.963 3.865 12.31 3.534 4.116-0.3129 8.11-2.06 11.13-4.87 3.024-2.81 5.058-6.665 5.671-10.75 0.6132-4.082-0.1988-8.365-2.264-11.94-2.065-3.575-5.369-6.417-9.212-7.926" style="fill:none;stroke-linecap:round;stroke-linejoin:round;stroke-width:2.183;stroke:#ff4c81"/>
 <path d="m160.7 102.3 0.2861 15.45v0" style="fill:none;stroke-linecap:round;stroke-linejoin:round;stroke-width:2.183;stroke:#ff4c81"/>
 <g transform="matrix(1.456 0 0 1.456 -171.2 -120.2)" style="fill:#fff;stroke:#ff4c81">
  <path d="m269.7 174.7h-3.184l-5.771-8.799c-0.3385-0.5143-0.5729-0.9017-0.7031-1.162h-0.0391c0.0521 0.4948 0.0781 1.25 0.0781 2.266v7.695h-2.979v-14h3.398l5.557 8.525c0.2539 0.3841 0.4883 0.765 0.7031 1.143h0.0391c-0.0521-0.3255-0.0781-0.9668-0.0781-1.924v-7.744h2.979z" style="fill:#fff;stroke:#ff4c81"/>
  <path d="m278.9 175c-2.005-1e-5 -3.639-0.6527-4.902-1.958s-1.895-3.006-1.895-5.103c0-2.214 0.6413-4.004 1.924-5.371 1.283-1.367 2.982-2.051 5.098-2.051 1.999 2e-5 3.615 0.6543 4.849 1.963 1.234 1.309 1.851 3.034 1.851 5.176-2e-5 2.201-0.6397 3.975-1.919 5.322-1.279 1.348-2.948 2.021-5.005 2.021zm0.1367-11.77c-1.107 1e-5 -1.986 0.415-2.637 1.245-0.651 0.8301-0.9766 1.929-0.9766 3.296 0 1.387 0.3255 2.484 0.9766 3.291 0.651 0.8073 1.504 1.211 2.559 1.211 1.087 0 1.95-0.3922 2.588-1.177 0.638-0.7845 0.957-1.873 0.957-3.267-1e-5 -1.452-0.3092-2.581-0.9277-3.389-0.6185-0.8073-1.465-1.211-2.539-1.211z" style="fill:#fff;stroke:#ff4c81"/>
  <path d="m307.3 173.8c-1.367 0.7878-3.066 1.182-5.098 1.182-2.253-1e-5 -4.028-0.6234-5.327-1.87-1.299-1.247-1.948-2.964-1.948-5.151 0-2.201 0.7096-3.994 2.129-5.381 1.419-1.387 3.307-2.08 5.664-2.08 1.484 2e-5 2.793 0.2051 3.926 0.6152v2.959c-1.081-0.625-2.402-0.9375-3.965-0.9375-1.309 1e-5 -2.375 0.4248-3.198 1.274-0.8236 0.8496-1.235 1.984-1.235 3.403-1e-5 1.439 0.3695 2.552 1.108 3.34 0.7389 0.7878 1.737 1.182 2.993 1.182 0.7552 0 1.354-0.1074 1.797-0.3223v-2.734h-2.803v-2.52h5.957z" style="fill:#fff;stroke:#ff4c81"/>
  <path d="m323.4 174.7h-3.438l-0.9961-3.115h-4.98l-0.9863 3.115h-3.418l5.098-14h3.74zm-5.156-5.537-1.504-4.707c-0.1107-0.3516-0.1888-0.7715-0.2344-1.26h-0.0781c-0.0326 0.4102-0.1139 0.8171-0.2441 1.221l-1.523 4.746z" style="fill:#fff;stroke:#ff4c81"/>
  <path d="m343.1 174.7h-3.115v-8.379c-2e-5 -0.9049 0.0391-1.904 0.1172-2.998h-0.0781c-0.1628 0.8594-0.3093 1.478-0.4394 1.855l-3.281 9.521h-2.578l-3.34-9.424c-0.0911-0.2539-0.2376-0.9049-0.4394-1.953h-0.0879c0.0846 1.38 0.1269 2.591 0.127 3.633v7.744h-2.842v-14h4.619l2.861 8.301c0.2279 0.6641 0.3939 1.331 0.498 2.002h0.0586c0.1758-0.7747 0.3613-1.449 0.5566-2.021l2.861-8.281h4.502z" style="fill:#fff;stroke:#ff4c81"/>
  <path d="m356.8 174.7h-8.398v-14h8.076v2.568h-4.922v3.115h4.58v2.559h-4.58v3.203h5.244z" style="fill:#fff;stroke:#ff4c81"/>
  <path d="m391.2 174.7h-3.184l-5.771-8.799c-0.3385-0.5143-0.5729-0.9017-0.7031-1.162h-0.0391c0.0521 0.4948 0.0781 1.25 0.0781 2.266v7.695h-2.979v-14h3.398l5.557 8.525c0.2539 0.3841 0.4883 0.765 0.7031 1.143h0.0391c-0.0521-0.3255-0.0781-0.9668-0.0781-1.924v-7.744h2.979z" style="fill:#fff;stroke:#ff4c81"/>
  <path d="m402.3 175c-2.005-1e-5 -3.639-0.6527-4.902-1.958s-1.895-3.006-1.895-5.103c0-2.214 0.6413-4.004 1.924-5.371 1.283-1.367 2.982-2.051 5.098-2.051 1.999 2e-5 3.615 0.6543 4.849 1.963 1.234 1.309 1.851 3.034 1.851 5.176-2e-5 2.201-0.6397 3.975-1.919 5.322-1.279 1.348-2.948 2.021-5.005 2.021zm0.1367-11.77c-1.107 1e-5 -1.986 0.415-2.637 1.245-0.651 0.8301-0.9766 1.929-0.9766 3.296 0 1.387 0.3255 2.484 0.9766 3.291 0.651 0.8073 1.504 1.211 2.559 1.211 1.087 0 1.95-0.3922 2.588-1.177 0.638-0.7845 0.957-1.873 0.957-3.267-1e-5 -1.452-0.3092-2.581-0.9277-3.389-0.6185-0.8073-1.465-1.211-2.539-1.211z" style="fill:#fff;stroke:#ff4c81"/>
  <path d="m427.4 174.7h-8.34v-14h3.154v11.45h5.186z" style="fill:#fff;stroke:#ff4c81"/>
  <path d="m441.5 174.7h-3.154v-14h3.154z" style="fill:#fff;stroke:#ff4c81"/>
  <path d="m461.7 163.3h-4.941v3.438h4.541v2.559h-4.541v5.439h-3.154v-14h8.096z" style="fill:#fff;stroke:#ff4c81"/>
  <path d="m478.4 174.7h-8.398v-14h8.076v2.568h-4.922v3.115h4.58v2.559h-4.58v3.203h5.244z" style="fill:#fff;stroke:#ff4c81"/>
 </g>
</svg>
